<?xml version="1.0" encoding="UTF-8" standalone="no"?>
<svg xmlns="http://www.w3.org/2000/svg" xmlns:xlink="http://www.w3.org/1999/xlink" width="204" height="208" version="1.0">
  <defs>
    <linearGradient id="k">
      <stop offset="0" stop-color="#999"/>
      <stop offset="1" stop-color="#525252"/>
    </linearGradient>
    <linearGradient id="j">
      <stop offset="0" stop-color="#d9d9d9"/>
      <stop offset=".11570371" stop-color="#b8b8b8"/>
      <stop offset=".31555557" stop-color="#989898"/>
      <stop offset="1" stop-color="#646464"/>
    </linearGradient>
    <linearGradient id="i">
      <stop offset="0" stop-color="#9e9e9e"/>
      <stop offset=".2" stop-color="#999"/>
      <stop offset="1" stop-color="#6c6c6c"/>
    </linearGradient>
    <linearGradient id="h">
      <stop offset="0" stop-color="#3d3d3d"/>
      <stop offset="1" stop-color="#3d3d3d" stop-opacity="0"/>
    </linearGradient>
    <linearGradient id="l">
      <stop offset="0" stop-color="#dcdcdc"/>
      <stop offset="1" stop-color="#434343"/>
    </linearGradient>
    <linearGradient id="f">
      <stop offset="0" stop-color="#bfbfbf"/>
      <stop offset=".94999999" stop-color="#828282"/>
      <stop offset="1" stop-color="#828282"/>
    </linearGradient>
    <linearGradient id="e">
      <stop offset="0" stop-color="gray"/>
      <stop offset="1" stop-color="#535353"/>
    </linearGradient>
    <linearGradient id="g">
      <stop offset="0" stop-color="#5c5c5c"/>
      <stop offset="1" stop-color="#6e6e6e"/>
    </linearGradient>
    <linearGradient id="a">
      <stop offset="0" stop-color="#4c4c4c" stop-opacity="0"/>
      <stop offset=".44999999" stop-color="#696969"/>
      <stop offset=".55000001" stop-color="#696969"/>
      <stop offset="1" stop-color="#4b4b4b" stop-opacity="0"/>
    </linearGradient>
    <linearGradient id="d">
      <stop offset="0" stop-color="#878787"/>
      <stop offset=".44999999" stop-color="#9b9b9b"/>
      <stop offset=".55000001" stop-color="#9b9b9b"/>
      <stop offset="1" stop-color="#878787"/>
    </linearGradient>
    <linearGradient id="c">
      <stop offset="0" stop-color="#444"/>
      <stop offset=".44999999" stop-color="#a7a7a7"/>
      <stop offset=".55000001" stop-color="#a7a7a7"/>
      <stop offset="1" stop-color="#444"/>
    </linearGradient>
    <linearGradient id="b">
      <stop offset="0" stop-color="#818181"/>
      <stop offset=".44999999" stop-color="#e6e6e6"/>
      <stop offset=".55000001" stop-color="#e6e6e6"/>
      <stop offset="1" stop-color="#818181"/>
    </linearGradient>
    <linearGradient xlink:href="#a" id="s" x1="84.375" x2="115.12907" y1="191.25" y2="191.25" gradientTransform="translate(5.1158809 .087885) scale(.96104)" gradientUnits="userSpaceOnUse"/>
    <linearGradient xlink:href="#b" id="q" x1="62.859951" x2="137.49564" y1="211.32187" y2="211.32187" gradientTransform="matrix(.83529 0 0 .69709 18.004109 40.213983)" gradientUnits="userSpaceOnUse"/>
    <linearGradient xlink:href="#c" id="r" x1="62.859951" x2="137.73167" y1="213.36609" y2="213.36609" gradientTransform="matrix(.83529 0 0 .69709 18.004109 40.213983)" gradientUnits="userSpaceOnUse"/>
    <linearGradient xlink:href="#b" id="o" x1="62.859951" x2="137.49564" y1="211.32187" y2="211.32187" gradientTransform="translate(5.3922756 -8.3703234) scale(.96104)" gradientUnits="userSpaceOnUse"/>
    <linearGradient xlink:href="#c" id="p" x1="62.859951" x2="137.73167" y1="213.36609" y2="213.36609" gradientTransform="translate(5.3922756 -8.3703234) scale(.96104)" gradientUnits="userSpaceOnUse"/>
    <linearGradient xlink:href="#d" id="n" x1="65.227562" x2="136.42601" y1="193.72583" y2="193.72583" gradientTransform="translate(5.3826041 3.1134884) scale(.96104)" gradientUnits="userSpaceOnUse"/>
    <linearGradient xlink:href="#e" id="y" x1="95.989746" x2="104.65005" y1="149.22176" y2="149.22176" gradientTransform="translate(5.5156734 4.0594995) scale(.96104)" gradientUnits="userSpaceOnUse"/>
    <linearGradient xlink:href="#f" id="x" x1="111.6233" x2="117.21579" y1="107.94439" y2="107.94439" gradientTransform="translate(-6.5464743 4.0594995) scale(.96104)" gradientUnits="userSpaceOnUse" spreadMethod="reflect"/>
    <linearGradient xlink:href="#g" id="t" x1="100.5" x2="100.5" y1="171.3125" y2="172.19363" gradientTransform="matrix(1.07766 0 0 .98674 -6.2888377 6.220097)" gradientUnits="userSpaceOnUse"/>
    <linearGradient xlink:href="#f" id="A" x1="99.18689" x2="104.72502" y1="43.591022" y2="43.591022" gradientTransform="translate(5.579392 4.0594995) scale(.96104)" gradientUnits="userSpaceOnUse" spreadMethod="reflect"/>
    <linearGradient xlink:href="#h" id="u" x1="-149.55309" x2="-160.3495" y1="30.781363" y2="30.781363" gradientTransform="translate(203.02758 10.341437)" gradientUnits="userSpaceOnUse"/>
    <linearGradient xlink:href="#i" id="w" x1="98.868912" x2="104.00174" y1="29.5625" y2="29.5625" gradientTransform="translate(5.9099672 4.0594995) scale(.96104)" gradientUnits="userSpaceOnUse" spreadMethod="reflect"/>
    <linearGradient xlink:href="#j" id="J" x1="-49.497475" x2="-5.0131407" y1="168.93234" y2="170.34656" gradientTransform="translate(204.00111 18.669998) scale(.96104)" gradientUnits="userSpaceOnUse" spreadMethod="reflect"/>
    <linearGradient xlink:href="#k" id="F" x1="-45.608387" x2="-45.608387" y1="131.76245" y2="166.81534" gradientTransform="translate(204.00111 4.0594995) scale(.96104)" gradientUnits="userSpaceOnUse"/>
    <linearGradient xlink:href="#j" id="E" x1="-38.890873" x2="2.765034" y1="154.0831" y2="173.17499" gradientTransform="translate(204.00111 18.669998) scale(.96104)" gradientUnits="userSpaceOnUse" spreadMethod="reflect"/>
    <linearGradient xlink:href="#k" id="I" x1="-45.608387" x2="-45.608387" y1="131.76245" y2="166.81534" gradientTransform="matrix(.90747 -.31637 .31637 .90747 187.29308 -7.8955071)" gradientUnits="userSpaceOnUse"/>
    <linearGradient xlink:href="#k" id="K" x1="-45.608387" x2="-45.608387" y1="131.76245" y2="166.81534" gradientTransform="matrix(-.96104 0 0 .96104 -.3255689 4.0594995)" gradientUnits="userSpaceOnUse"/>
    <linearGradient xlink:href="#j" id="m" x1="-38.890873" x2="2.765034" y1="154.0831" y2="173.17499" gradientTransform="translate(91.679548 18.669998) scale(.96104)" gradientUnits="userSpaceOnUse" spreadMethod="reflect"/>
    <linearGradient xlink:href="#k" id="L" x1="-45.608387" x2="-45.608387" y1="131.76245" y2="166.81534" gradientTransform="matrix(.90747 -.31637 .31637 .90747 74.97152 -7.8955071)" gradientUnits="userSpaceOnUse"/>
    <linearGradient xlink:href="#j" id="M" x1="-49.497475" x2="-5.0131407" y1="168.93234" y2="170.34656" gradientTransform="translate(91.679548 18.669998) scale(.96104)" gradientUnits="userSpaceOnUse" spreadMethod="reflect"/>
    <radialGradient xlink:href="#l" id="D" cx="98.5" cy="5.1874995" r="5.5" fx="98.5" fy="5.1874995" gradientTransform="matrix(.75707 .7907 -.88378 .84618 28.513592 -77.085512)" gradientUnits="userSpaceOnUse"/>
  </defs>
  <path fill="url(#m)" fill-rule="evenodd" stroke="#5d5d5d" stroke-width=".5" d="M3.6767982 153.26508c26.0740468 14.61593 59.0966528 13.79922 84.9447388 0 2.13671-1.28886-28.238923-4.63352-42.612969-4.63352-25.685229 0-42.7989698 2.55238-42.3317698 4.63352z"/>
  <path fill="url(#n)" fill-rule="evenodd" stroke="#444" stroke-width=".5" d="M64.550317 189.22706s-.236512-4.01596 5.884516-4.10278c6.12103-.08683 59.625787 0 63.619647 0 3.99386 0 4.9889 2.73227 4.95418 4.12101-.08455 3.41291-27.60575 10.52663-27.61502 10.37845l-36.46571-2.92219c-3.459203-2.4915-8.357286-2.44097-10.377613-7.47449z"/>
  <path fill="url(#o)" fill-rule="evenodd" stroke="url(#p)" stroke-width=".5" d="M64.575345 188.75641v7.80386c-.263267 8.23377 74.426975 8.64012 74.408575 0v-7.80386c.07122 8.68602-74.559246 8.69948-74.408575 0z"/>
  <path fill="#979797" fill-rule="evenodd" stroke="#444" stroke-width=".5" d="M69.43276 183.39714c.098478-1.42255 10.074615-5.11098 31.3259-5.11098 21.36623 0 33.3672 2.93636 33.3672 5.21842 0 .55254-6.56907 5.03425-6.56907 5.03425l-27.47346 2.63991-30.236169-4.91146-.414401-2.87014z"/>
  <path fill="url(#q)" fill-rule="evenodd" stroke="url(#r)" stroke-width=".5" d="M69.443147 183.19972v5.66052c.118477 5.19094 64.688303 5.91981 64.672323 0v-5.66052c-.02492 5.60581-64.629624 5.52876-64.672323 0z"/>
  <path fill="none" stroke="url(#s)" stroke-linecap="round" stroke-width=".5" d="M116.2962 183.76668s-9.12989-.96104-11.29223-2.4026c-2.16234-1.44156-1.68182-1.56169-3.90421-1.56169-2.22241 0-1.74189.12013-3.904227 1.56169-2.162341 1.44156-11.292222 2.4026-11.292222 2.4026"/>
  <path id="z" fill="#7c7c7c" fill-opacity="1" fill-rule="evenodd" stroke="url(#t)" stroke-dasharray="none" stroke-linecap="butt" stroke-linejoin="round" stroke-miterlimit="4" stroke-opacity="1" stroke-width=".5" d="m93.92982 175.22521 15.69711.02386c.11574.61305-5.00444 5.12314-6.67019 5.0352l-3.21576-.01921c-1.889636.05946-5.828762-4.78706-5.81116-5.03985z"/>
  <g transform="translate(5.9099672 4.0594995) scale(.96104)">
    <path fill="gray" stroke="#535353" stroke-linecap="round" stroke-linejoin="round" stroke-width=".26013482" d="M99.521447 19.37316c-.26388 0-.5306.01207-.78125.03125-.29798.022802-.57015.077582-.84375.125-1.63154.282772-2.78125.958114-2.78125 1.78125v4.34375c-4.9359-2.86236-11.0378-4.40625-15.40625-4.40625-5.83363 0-8.87123.688272-15.875 4.5625-5.82377 3.221495-7.43414 4.602633-11.5 3.71875-4.06586-.883885-6.00368-2.980393-8.125-3.6875-2.12131-.707106-5.30047 1.571628-5.5 2.25-.22098.751301-.91698-.18842-1.09375-.71875-.17679-.530331-4.17678 1.742037-4 3.15625.17677 1.414213 3.61622 5.290053 4.125 3.625.48615-1.590989 1.16253-1.743717 1.78125-1.125.62501.625 2.92769 1.900126 3.28125 4.374999.35355 2.474871-.89737 3.175857-1.78125 2.46875-.88388-.707107-1.22948-1.042893-1.40625-1.75-.17677-.707105-3.87408 1.06342-3.34375 1.59375.53033.53033 1.57506 3.865197 2.8125 4.21875 1.23743.353552 1.25 1.949143 1.25 2.65625 0 .707107 2.125.551777 2.125.375 0-.176778.15625-2.5.15625-2.5 0 .000001 4.08302-.342226 3.90625-5.46875-.17678-5.126523-3.01869-6.708946-1.78125-7.062499 1.23744-.353553 7.41545 2.823223 12.71875 3 5.3033.176778 12.48531-5.125 22.03125-5.125 7.08304.000001 13.01947 3.292669 15.625 5v1.718749c0 .823136 1.14971 1.498478 2.78125 1.78125.2736.047418.54577.102198.84375.125.25065.01918.51737.03125.78125.03125.04188.000507.08284 0 .125 0h.21875c.340543 0 .681343.000303 1.000003-.03125 2.01496-.17938 3.53125-.963633 3.53125-1.90625V34.81066c2.60553-1.707331 8.54196-4.999999 15.625-5 9.54594 0 16.72795 5.301778 22.03125 5.125 5.3033-.176777 11.48131-3.353553 12.71875-3 1.23744.353553-1.60447 1.935976-1.78125 7.062499-.17677 5.126524 3.90625 5.468751 3.90625 5.46875 0 0 .15625 2.323222.15625 2.5 0 .176777 2.125.332107 2.125-.375 0-.707107.01257-2.302698 1.25-2.65625 1.23744-.353553 2.28217-3.68842 2.8125-4.21875.53033-.53033-3.16698-2.300855-3.34375-1.59375-.17677.707107-.52237 1.042893-1.40625 1.75-.88388.707107-2.1348.006121-1.78125-2.46875.35356-2.474873 2.65624-3.749999 3.28125-4.374999.61872-.618717 1.26385-.465989 1.75 1.125.50878 1.665053 3.97948-2.210787 4.15625-3.625.17678-1.414213-3.82321-3.686581-4-3.15625-.17677.53033-.87277 1.470051-1.09375.71875-.19953-.678372-3.37869-2.957106-5.5-2.25-2.12132.707107-4.05914 2.803615-8.125 3.6875-4.06586.883883-5.67623-.497255-11.5-3.71875-7.00376-3.874228-10.07262-4.5625-15.90625-4.5625-4.36845 0-10.4391 1.54389-15.375 4.40625v-4.34375c0-.942617-1.51629-1.72687-3.53125-1.90625-.0308-.002742-.06271.002462-.09375 0-.24893-.022095-.51912-.028077-.781253-.03125h-.46875z"/>
    <path id="v" fill="none" fill-opacity="1" fill-rule="evenodd" stroke="url(#u)" stroke-dasharray="none" stroke-linecap="butt" stroke-linejoin="miter" stroke-miterlimit="4" stroke-opacity="1" stroke-width=".52026963" d="M41.895621 28.394877s6.805899 3.712311 13.52341 3.712311c6.71752 0 14.4957-6.540739 23.511311-6.540739 7.78093 0 14.6175 4.698125 18.58161 7.172999"/>
    <use xlink:href="#v" width="204" height="208" transform="matrix(-1 0 0 1 199.51165 5e-7)"/>
  </g>
  <path fill="#6b6b6b" fill-rule="evenodd" stroke="#585858" stroke-width=".5" d="M98.46647 23.147014v-3.436327c2.38789-1.038375 4.23838-2.314826 6.62569 0v3.101522l-6.62569.334805z"/>
  <path fill="url(#w)" stroke="#535353" stroke-linecap="round" stroke-linejoin="round" stroke-width=".5" d="M101.54551 22.338106c-.26325 0-.52933.01203-.77938.031145-.29726.022726-.56877.07732-.84172.124579-1.6276.281819-2.774538.954885-2.774538 1.775247v15.167468c0 .820364 1.146938 1.49343 2.774538 1.775248.27295.047258.54446.101854.84172.12458.25005.019115.51613.031144.77938.031144.04177.000506.08263 0 .12469 0h.21822c.33972 0 .6797.000302.9976-.031144 2.0101-.178776 3.52274-.960387 3.52274-1.899828V24.269077c0-.939439-1.51264-1.721051-3.52274-1.899826-.03073-.002732-.06256.002453-.09352 0-.24834-.02202-.51788-.027982-.77938-.031145h-.46761z"/>
  <path fill="url(#x)" fill-rule="evenodd" stroke="url(#y)" stroke-width=".69999999" d="M97.765673 172.44135V47.275259l8.027277-.042472-.04247 126.058023-7.984807-.84946z"/>
  <use xlink:href="#z" width="204" height="208" transform="matrix(1 0 0 -1 0 350.45232)"/>
  <path id="B" fill="url(#A)" fill-opacity="1" fill-rule="evenodd" stroke="#4a4a4a" stroke-dasharray="none" stroke-linecap="round" stroke-linejoin="round" stroke-miterlimit="4" stroke-opacity="1" stroke-width=".5" d="M97.574552 47.087035h8.409518s-1.51506-2.269622-4.3154-2.269622c-2.80035 0-4.094118 2.157389-4.094118 2.269622z"/>
  <use xlink:href="#B" id="C" width="204" height="208" x="0" y="0" transform="matrix(1 0 0 1.06307 0 -7.4275914)"/>
  <use xlink:href="#C" width="204" height="208" transform="matrix(1 0 0 -1 0 85.125731)"/>
  <path fill="#787878" fill-rule="evenodd" stroke="#686868" stroke-linejoin="round" stroke-width=".5" d="M99.47184 14.616368v2.552763s-.15906.081784-.1802.090097c-.00584.002298-.05274-.002891-.06006 0-.98967.175586-2.37523.520641-2.823059 1.021105-.179498.200596-.132286.335643 0 .510553.263965.349017 2.587809 1.44156 5.195619 1.44156.04846 0 .10109.001151.15017 0 .05903.001651.12204 0 .18019 0 2.60782 0 4.92452-1.092439 5.19562-1.44156.21525-.277194.14859-.327303 0-.510553-.28077-.346262-1.83998-.847612-2.82305-1.021105-.00366-.001445-.02674.001298-.03004 0-.02713-.010692-.21022-.090097-.21022-.090097v-2.552763h-4.59497z"/>
  <path fill="url(#D)" d="M105 6.8749995a5.25 5.25 0 1 1-10.5 0 5.25 5.25 0 1 1 10.5 0z" transform="translate(-3.4912204 3.3407912) scale(1.05534)"/>
  <path id="H" fill="#838383" fill-opacity="1" fill-rule="evenodd" stroke="#535353" stroke-dasharray="none" stroke-linecap="butt" stroke-linejoin="miter" stroke-miterlimit="4" stroke-opacity="1" stroke-width=".39999998" d="M157.00025 42.41101c-.18342 1.621755-.21643 3.243511 0 4.865266 0-.000001-3.06331-.04272-3.06331.660715 0 .703434.3835 13.441757-.72078 14.715928-1.10429 1.27417-1.80284 1.009916-2.31251.330358-.50966-.679556-2.02249-.580039-2.19237-.24026-.16989.339779-.54246 2.422586.54059 3.12338 1.51117.977827 5.27629.949699 5.61607-2.702925.33978-3.652623.32997-6.787347 1.74189-6.787347.50967 0 .48052 1.740269.48052 3.693999 0 1.95373-.17078 2.458396-.51055 2.88312-.33979.424721-.25484 4.504876 0 4.504876.25483.000002 2.29792 0 2.55276 0 .25483.000002.33978-4.080153 0-4.504876-.33979-.424726-.51055-.929391-.51055-2.88312s-.23938-3.693999.27029-3.693999c1.53203-.000001 1.34203 2.804365 1.68182 6.456989.33978 3.652624 3.85711 3.748026 5.55601 3.153413 1.69889-.594611.87442-3.046245.72078-3.393673-.22995-.519974-1.23221-.078907-1.86201.300325-.72771.438187-1.44849.943814-2.55277-.330357-1.10428-1.27417-1.2013-13.922396-1.2013-14.625831 0-.703437-2.79302-.660715-2.79302-.660715-.07066-1.621755-.2993-3.243511 0-4.865266-.73007.399292-1.10583.231659-1.44156 0zm.78085 5.856339c.81526 0 1.47159.143589 1.47159.330357v2.282471c0 .186766-.65633.330357-1.47159.330357-.81527 0-1.4716-.143589-1.4716-.330357v-2.282471c0-.186766.65633-.330357 1.4716-.330357z"/>
  <path fill="url(#E)" fill-rule="evenodd" stroke="#5d5d5d" stroke-width=".5" d="M115.99836 153.26508c26.07405 14.61593 59.09665 13.79922 84.94474 0 2.13671-1.28886-28.23892-4.63352-42.61297-4.63352-25.68523 0-42.79897 2.55238-42.33177 4.63352z"/>
  <path fill="none" stroke="url(#F)" stroke-linecap="round" stroke-width=".69999999" d="M159.32283 62.774141c1.50466 6.884672-1.28249 4.114702-1.3815 5.446507l-.15016 94.961742"/>
  <use xlink:href="#G" width="204" height="208" transform="matrix(-1 0 0 1 315.81265 0)"/>
  <use xlink:href="#H" width="204" height="208" transform="matrix(-1 0 0 1 203.56824 0)"/>
  <path id="G" fill="none" fill-opacity="1" fill-rule="evenodd" stroke="url(#I)" stroke-dasharray="none" stroke-linecap="round" stroke-linejoin="miter" stroke-miterlimit="4" stroke-opacity="1" stroke-width=".69999999" d="M163.53198 63.391468c-.21412.064856-.25536.592244-.11072 1.157215.14464.564971.45392 1.167525.74971 2.125978 10.1119 30.411119 21.17202 60.506069 31.81377 90.735209"/>
  <path fill="url(#J)" fill-rule="evenodd" stroke="#5d5d5d" stroke-width=".5" d="M115.99836 153.49868c28.4525 12.57725 59.09665 10.06164 84.94474 0-.58152 2.93715-15.18256 20.95712-43.63231 20.95609-28.06311-.00101-41.31243-18.91741-41.31243-20.95609z"/>
  <path fill="none" stroke="url(#K)" stroke-linecap="round" stroke-width=".69999999" d="M44.352715 62.774141c-1.504662 6.884672 1.282489 4.114702 1.381495 5.446507l.150162 94.961742"/>
  <use xlink:href="#G" width="204" height="208" transform="matrix(-1 0 0 1 203.49109 0)"/>
  <path fill="none" stroke="url(#L)" stroke-linecap="round" stroke-width=".69999999" d="M51.210418 63.391468c-.214119.064856-.255358.592244-.110721 1.157215.144636.564971.453918 1.167525.749707 2.125978C61.961305 97.08578 73.021425 127.18073 83.663176 157.40987"/>
  <path fill="url(#M)" fill-rule="evenodd" stroke="#5d5d5d" stroke-width=".5" d="M3.6767982 153.49868c28.4524958 12.57725 59.0966528 10.06164 84.9447388 0-.581515 2.93715-15.182559 20.95712-43.632306 20.95609-28.063111-.00101-41.3124328-18.91741-41.3124328-20.95609z"/>
</svg>